# xmcd
#
# Track frame offsets: 
#        150
#        1615
#        12625
#        23302
#        34667
#        46247
#        57430
#        69814
#        80342
#        91284
#        102053
#        111964
#        123893
#        134854
#        146129
#        157570
#        169250
#        177950
#        189509
#        199314
#        212295
#        223370
#        235275
#        244506
#        254648
#        265533
#        277940
#        289810
#        301839
#        313082
#        324929
#        334662
#
# Disc length: 4613 seconds
#
# Revision: 0
# Processed by: cddbd v1.5.2PL0 Copyright (c) Steve Scherf et al.
# Submitted via: ExactAudioCopyFreeDBPlugin 1.0
#
DISCID=b7120320
DTITLE=Jim Reeves - Welcome To My World - CD 03
DYEAR=2001
DGENRE=Country
TTITLE0=Spoken Introduction
TTITLE1=I'm Hurting Inside
TTITLE2=If You Were Mine
TTITLE3=That's A Sad Affair
TTITLE4=Yonder Comes A Sucker
TTITLE5=Jimbo Jenkins
TTITLE6=I've Lived A Lot In My Time
TTITLE7=Ichabod Crane
TTITLE8=My Lips Are Sealed
TTITLE9=Your Old Love Letters
TTITLE10=Waltzing On Top Of The World
TTITLE11=Beyond The Shadow Of A Doubt
TTITLE12=Love Me A Little Bit More
TTITLE13=According To My Heart
TTITLE14=Each Time You Leave
TTITLE15=Highway To Nowhere
TTITLE16=Breeze (Bring My Baby Back To Me)
TTITLE17=Roly Poly
TTITLE18=Tweedle O'twill
TTITLE19=Have I Told You Lately That I Love You
TTITLE20=Oklahoma Hills
TTITLE21=My Lips Are Sealed
TTITLE22=Pickin' A Chicken
TTITLE23=I've Got Just The Thing For You
TTITLE24=Mother Of A Honky Tonk Girl (&Carol Johnson)
TTITLE25=Am I Losing You
TTITLE26=According To My Heart
TTITLE27=Don't Tell Me
TTITLE28=I Can't Fly
TTITLE29=Don't Ask Me Why
TTITLE30=Waiting For A Train
TTITLE31=Look Behind You
EXTD=
EXTT0=
EXTT1=
EXTT2=
EXTT3=
EXTT4=
EXTT5=
EXTT6=
EXTT7=
EXTT8=
EXTT9=
EXTT10=
EXTT11=
EXTT12=
EXTT13=
EXTT14=
EXTT15=
EXTT16=
EXTT17=
EXTT18=
EXTT19=
EXTT20=
EXTT21=
EXTT22=
EXTT23=
EXTT24=
EXTT25=
EXTT26=
EXTT27=
EXTT28=
EXTT29=
EXTT30=
EXTT31=
PLAYORDER=
